<?xml version="1.0" encoding="UTF-8" standalone="no"?>
<!-- Created with Inkscape (http://www.inkscape.org/) -->

<svg
   xmlns:dc="http://purl.org/dc/elements/1.1/"
   xmlns:cc="http://creativecommons.org/ns#"
   xmlns:rdf="http://www.w3.org/1999/02/22-rdf-syntax-ns#"
   xmlns:svg="http://www.w3.org/2000/svg"
   xmlns="http://www.w3.org/2000/svg"
   xmlns:sodipodi="http://sodipodi.sourceforge.net/DTD/sodipodi-0.dtd"
   xmlns:inkscape="http://www.inkscape.org/namespaces/inkscape"
   width="1737.322"
   height="882.99982"
   id="svg2"
   version="1.1"
   inkscape:version="0.47 r22583"
   sodipodi:docname="chinapgoda.svg">
  <defs
     id="defs4">
    <inkscape:path-effect
       is_visible="true"
       id="path-effect2982"
       effect="spiro" />
    <inkscape:path-effect
       is_visible="true"
       id="path-effect2935"
       effect="spiro" />
    <inkscape:path-effect
       effect="spiro"
       id="path-effect2931"
       is_visible="true" />
    <inkscape:path-effect
       is_visible="true"
       id="path-effect2927"
       effect="spiro" />
    <inkscape:path-effect
       effect="spiro"
       id="path-effect2923"
       is_visible="true" />
    <inkscape:path-effect
       effect="spiro"
       id="path-effect2872"
       is_visible="true" />
    <inkscape:path-effect
       effect="spiro"
       id="path-effect2853"
       is_visible="true" />
    <inkscape:path-effect
       effect="spiro"
       id="path-effect2849"
       is_visible="true" />
    <inkscape:path-effect
       is_visible="true"
       id="path-effect2844"
       effect="spiro" />
    <inkscape:path-effect
       effect="spiro"
       id="path-effect2840"
       is_visible="true" />
    <inkscape:path-effect
       effect="spiro"
       id="path-effect2818"
       is_visible="true" />
    <inkscape:perspective
       sodipodi:type="inkscape:persp3d"
       inkscape:vp_x="0 : 526.18109 : 1"
       inkscape:vp_y="0 : 1000 : 0"
       inkscape:vp_z="744.09448 : 526.18109 : 1"
       inkscape:persp3d-origin="372.04724 : 350.78739 : 1"
       id="perspective10" />
    <inkscape:perspective
       id="perspective2832"
       inkscape:persp3d-origin="0.5 : 0.33333333 : 1"
       inkscape:vp_z="1 : 0.5 : 1"
       inkscape:vp_y="0 : 1000 : 0"
       inkscape:vp_x="0 : 0.5 : 1"
       sodipodi:type="inkscape:persp3d" />
    <inkscape:perspective
       id="perspective2864"
       inkscape:persp3d-origin="0.5 : 0.33333333 : 1"
       inkscape:vp_z="1 : 0.5 : 1"
       inkscape:vp_y="0 : 1000 : 0"
       inkscape:vp_x="0 : 0.5 : 1"
       sodipodi:type="inkscape:persp3d" />
  </defs>
  <sodipodi:namedview
     id="base"
     pagecolor="#ffffff"
     bordercolor="#666666"
     borderopacity="1.0"
     inkscape:pageopacity="0.0"
     inkscape:pageshadow="2"
     inkscape:zoom="0.67920626"
     inkscape:cx="868.66101"
     inkscape:cy="441.49991"
     inkscape:document-units="px"
     inkscape:current-layer="layer1"
     showgrid="false"
     inkscape:window-width="1280"
     inkscape:window-height="963"
     inkscape:window-x="-9"
     inkscape:window-y="-9"
     inkscape:window-maximized="1" />
  <metadata
     id="metadata7">
    <rdf:RDF>
      <cc:Work
         rdf:about="">
        <dc:format>image/svg+xml</dc:format>
        <dc:type
           rdf:resource="http://purl.org/dc/dcmitype/StillImage" />
        <dc:title></dc:title>
      </cc:Work>
    </rdf:RDF>
  </metadata>
  <g
     inkscape:label="Layer 1"
     inkscape:groupmode="layer"
     id="layer1"
     transform="translate(-8.547552,-195.68126)">
    <g
       id="g2987">
      <path
         style="fill:#333333;stroke:none"
         d="M 71.530774,1009.3674 C 104.67059,901.80253 170.93487,804.69286 259.01207,734.61535 347.08926,664.53785 456.60569,621.78981 568.86652,613.6685 c 126.72719,-9.16786 256.23718,26.16826 360.74728,98.428 104.5101,72.25974 183.3037,180.9476 219.4778,302.7477 L 71.530774,1009.3674"
         id="path2925"
         inkscape:path-effect="#path-effect2923"
         inkscape:original-d="m 71.530774,1009.3674 c 0,0 397.609556,-353.25368 497.335746,-395.6989 99.72618,-42.44522 580.22508,401.1757 580.22508,401.1757 L 71.530774,1009.3674 z" />
      <path
         inkscape:original-d="m 487.76772,1009.3674 c 0,0 394.073,-353.25368 492.9121,-395.6989 98.83928,-42.44522 575.06428,401.1757 575.06428,401.1757 l -1067.97638,-5.4768 z"
         inkscape:path-effect="#path-effect2927"
         id="path2921"
         d="m 487.76772,1009.3674 c 32.07668,-107.34759 97.4523,-204.49018 184.82043,-274.62738 87.36814,-70.1372 196.34788,-112.96323 308.09167,-121.07152 126.09338,-9.14952 254.97638,26.29048 358.66358,98.62462 103.6872,72.33415 181.4491,181.05355 216.4007,302.55108 l -1067.97638,-5.4768"
         style="fill:#999999;stroke:none" />
      <path
         style="fill:#000000;stroke:#000000;stroke-width:0.92996955px;stroke-linecap:butt;stroke-linejoin:miter;stroke-opacity:1"
         d="m 247.72409,229.94139 -2.81897,1.39496 -1.39495,47.74812 -14.03673,8.42785 8.42785,7.00383 0,8.42785 -1.42402,12.64178 5.63794,14.03672 -5.63794,2.81897 0,19.64561 -57.57092,57.57093 -36.50131,-2.78991 19.67467,37.89626 -8.42785,2.81897 0,5.60888 30.89243,21.06962 -46.35317,-2.81897 9.85186,40.71523 25.25449,8.42785 1.42401,15.46074 -51.96205,-5.63794 15.43169,43.5342 29.49747,8.42785 -1.39496,19.6456 -51.96204,-2.7899 19.6456,40.71522 25.28355,14.03673 -1.39496,29.49747 -53.357,-7.03289 18.25065,37.92532 39.32028,15.43168 0,8.42785 -18.25065,-1.39495 7.00383,29.46841 -60.360834,1.39495 19.645604,29.49747 40.71523,14.03673 1.42402,22.46458 -12.64178,-1.39496 4.21393,33.7114 -134.8165232,39.29121 65.9987762,32.31644 -2.499294,40.39558 -4.213924,0 0,36.99527 1495.158605,0 0,-36.99527 -1140.52054,0 -2.49929,-40.39558 65.96972,-32.31644 -134.78746,-39.29121 4.21392,-33.7114 -12.64177,1.39496 1.42401,-22.46458 40.71523,-14.03673 19.64561,-29.49747 -60.36084,-1.39495 7.00384,-29.46841 -18.25066,1.39495 0,-8.42785 39.32028,-15.43168 18.25065,-37.92532 -53.357,7.03289 -1.39496,-29.49747 25.25449,-14.03673 19.67467,-40.71522 -51.96205,2.7899 -1.39496,-19.6456 29.49748,-8.42785 15.43168,-43.5342 -51.96205,5.63794 1.42402,-15.46074 25.25448,-8.42785 9.85187,-40.71523 -46.35317,2.81897 30.89242,-21.06962 0,-5.60888 -8.42785,-2.81897 19.67467,-37.89626 -36.53036,2.78991 -57.57093,-57.57093 0,-19.64561 -5.60888,-2.81897 5.60888,-14.03672 -1.39496,-12.64178 0,-8.42785 8.42785,-7.00383 -14.03672,-8.42785 -1.39496,-47.74812 -2.81897,-1.39496 z m 52.89202,705.32378 7.29445,42.74956 -8.9219,0 -4.12674,-42.66238 5.75419,-0.0871 z m -20.83713,0.26155 1.71463,42.48801 -63.26699,0 -2.67366,-41.67429 64.22602,-0.81372 z m -84.71441,1.07528 -1.65651,41.41273 -8.68941,0 3.54551,-41.32555 6.80041,-0.0871 z m -20.83713,0.0871 -1.07528,41.3255 -7.84662,0 5.72513,-41.26738 3.19677,-0.0581 z m 144.63932,0 11.04339,0.66841 -1.1334,40.65709 -8.83471,0 -1.07528,-41.3255 z m -220.954949,1.24964 -3.516448,40.07586 -8.980016,0 4.562663,-39.93055 7.933801,-0.14531 z m 311.452609,4.15585 3.57457,0.20343 -0.92997,35.71667 -4.44641,0 1.80181,-35.9201 z"
         id="path2838" />
      <path
         sodipodi:nodetypes="ccc"
         inkscape:original-d="M 141.0096,408.25861 247.72197,230.2639 353.03023,407.18178"
         inkscape:path-effect="#path-effect2982"
         id="path2847"
         d="M 141.0096,408.25861 247.72197,230.2639 353.03023,407.18178"
         style="fill:none;stroke:#b3b3b3;stroke-width:0.92996955px;stroke-linecap:butt;stroke-linejoin:miter;stroke-opacity:1" />
      <g
         transform="matrix(0.33302139,0,0,0.33302139,466.25586,637.09816)"
         id="g2887">
        <path
           sodipodi:nodetypes="cccccccccccccccccccccccccccccccccccccccccccccccccccccccccccccccccccccccccccccccccccccccccccccccccccccccccccccccccc"
           id="path2889"
           d="m 265.73505,232.52132 -3.03125,1.5 -1.5,51.34375 -15.09375,9.0625 9.0625,7.53125 0,9.0625 -1.53125,13.59375 6.0625,15.09375 -6.0625,3.03125 0,21.125 -61.90625,61.90625 -39.25,-3 21.15625,40.75 -9.0625,3.03125 0,6.03125 33.21875,22.65625 -49.84375,-3.03125 10.59375,43.78125 27.15625,9.0625 1.53125,16.625 -55.875,-6.0625 16.59375,46.8125 31.71875,9.0625 -1.5,21.125 -55.875,-3 21.125,43.78125 27.1875,15.09375 -1.5,31.71875 -57.375,-7.5625 19.625,40.78125 42.28125,16.59375 0,9.0625 -19.625,-1.5 7.53125,31.6875 -64.906248,1.5 21.124998,31.71875 43.78125,15.09375 1.53125,24.15625 -13.59375,-1.5 4.53125,36.25 -144.968748,42.25 70.96875,34.75 -3,48.31253 13.625,0 5.46875,-47.81253 8.531248,-0.15625 -4,45.43748 75.5,4.5313 7.125,-51.25003 3.4375,-0.0625 -1.28125,49.31253 12.15625,0 4.21875,-49.31253 7.3125,-0.0937 -1.98053,49.47383 27.1875,0 -3.17572,-49.75508 69.0625,-0.875 2.05072,51.06868 19.09119,-0.2669 -4.92316,-50.98928 6.1875,-0.0937 8.6875,50.84378 12.21875,0 -1.28125,-49.31253 11.875,0.71875 -1.3125,47.59378 84.53125,1.5 2.21875,-44.00003 3.84375,0.21875 -1.125,43.28128 12.1875,0 -3,-48.31253 70.9375,-34.75 -144.9375,-42.25 4.53125,-36.25 -13.59375,1.5 1.53125,-24.15625 43.78125,-15.09375 21.125,-31.71875 -64.90625,-1.5 7.53125,-31.6875 -19.625,1.5 0,-9.0625 42.28125,-16.59375 19.625,-40.78125 -57.375,7.5625 -1.5,-31.71875 27.15625,-15.09375 21.15625,-43.78125 -55.875,3 -1.5,-21.125 31.71875,-9.0625 16.59375,-46.8125 -55.875,6.0625 1.53125,-16.625 27.15625,-9.0625 10.59375,-43.78125 -49.84375,3.03125 33.21875,-22.65625 0,-6.03125 -9.0625,-3.03125 21.15625,-40.75 -39.28125,3 -61.90625,-61.90625 0,-21.125 -6.03125,-3.03125 6.03125,-15.09385 -1.5,-13.59375 0,-9.0625 9.0625,-7.53125 -15.09375,-9.0625 -1.5,-51.34375 -3.03125,-1.5 z"
           style="fill:#000000;stroke:#000000;stroke-width:1px;stroke-linecap:butt;stroke-linejoin:miter;stroke-opacity:1" />
        <path
           inkscape:original-d="M 150.98453,424.26654 265.73277,235.53587 378.97117,425.77638"
           inkscape:path-effect="#path-effect2849"
           id="path2891"
           d="M 150.98453,424.26654 265.73277,235.53587 378.97117,425.77638"
           style="fill:none;stroke:#b3b3b3;stroke-width:1px;stroke-linecap:butt;stroke-linejoin:miter;stroke-opacity:1" />
      </g>
      <g
         id="g2893"
         transform="matrix(0.33302139,0,0,0.33302139,639.23419,637.09816)">
        <path
           style="fill:#000000;stroke:#000000;stroke-width:1px;stroke-linecap:butt;stroke-linejoin:miter;stroke-opacity:1"
           d="m 265.73505,232.52132 -3.03125,1.5 -1.5,51.34375 -15.09375,9.0625 9.0625,7.53125 0,9.0625 -1.53125,13.59375 6.0625,15.09375 -6.0625,3.03125 0,21.125 -61.90625,61.90625 -39.25,-3 21.15625,40.75 -9.0625,3.03125 0,6.03125 33.21875,22.65625 -49.84375,-3.03125 10.59375,43.78125 27.15625,9.0625 1.53125,16.625 -55.875,-6.0625 16.59375,46.8125 31.71875,9.0625 -1.5,21.125 -55.875,-3 21.125,43.78125 27.1875,15.09375 -1.5,31.71875 -57.375,-7.5625 19.625,40.78125 42.28125,16.59375 0,9.0625 -19.625,-1.5 7.53125,31.6875 -64.906248,1.5 21.124998,31.71875 43.78125,15.09375 1.53125,24.15625 -13.59375,-1.5 4.53125,36.25 -144.968748,42.25 70.96875,34.75 -3,48.31253 13.625,0 5.46875,-47.81253 8.531248,-0.15625 -4,45.43748 75.5,4.5313 7.125,-51.25003 3.4375,-0.0625 -1.28125,49.31253 12.15625,0 4.21875,-49.31253 7.3125,-0.0937 -1.98053,49.47383 27.1875,0 -3.17572,-49.75508 69.0625,-0.875 2.05072,51.06868 19.09119,-0.2669 -4.92316,-50.98928 6.1875,-0.0937 8.6875,50.84378 12.21875,0 -1.28125,-49.31253 11.875,0.71875 -1.3125,47.59378 84.53125,1.5 2.21875,-44.00003 3.84375,0.21875 -1.125,43.28128 12.1875,0 -3,-48.31253 70.9375,-34.75 -144.9375,-42.25 4.53125,-36.25 -13.59375,1.5 1.53125,-24.15625 43.78125,-15.09375 21.125,-31.71875 -64.90625,-1.5 7.53125,-31.6875 -19.625,1.5 0,-9.0625 42.28125,-16.59375 19.625,-40.78125 -57.375,7.5625 -1.5,-31.71875 27.15625,-15.09375 21.15625,-43.78125 -55.875,3 -1.5,-21.125 31.71875,-9.0625 16.59375,-46.8125 -55.875,6.0625 1.53125,-16.625 27.15625,-9.0625 10.59375,-43.78125 -49.84375,3.03125 33.21875,-22.65625 0,-6.03125 -9.0625,-3.03125 21.15625,-40.75 -39.28125,3 -61.90625,-61.90625 0,-21.125 -6.03125,-3.03125 6.03125,-15.09385 -1.5,-13.59375 0,-9.0625 9.0625,-7.53125 -15.09375,-9.0625 -1.5,-51.34375 -3.03125,-1.5 z"
           id="path2895"
           sodipodi:nodetypes="cccccccccccccccccccccccccccccccccccccccccccccccccccccccccccccccccccccccccccccccccccccccccccccccccccccccccccccccccc" />
        <path
           style="fill:none;stroke:#b3b3b3;stroke-width:1px;stroke-linecap:butt;stroke-linejoin:miter;stroke-opacity:1"
           d="M 150.98453,424.26654 265.73277,235.53587 378.97117,425.77638"
           id="path2897"
           inkscape:path-effect="#path-effect2849"
           inkscape:original-d="M 150.98453,424.26654 265.73277,235.53587 378.97117,425.77638" />
      </g>
      <g
         transform="matrix(0.33302139,0,0,0.33302139,812.21252,637.09816)"
         id="g2899">
        <path
           sodipodi:nodetypes="cccccccccccccccccccccccccccccccccccccccccccccccccccccccccccccccccccccccccccccccccccccccccccccccccccccccccccccccccc"
           id="path2901"
           d="m 265.73505,232.52132 -3.03125,1.5 -1.5,51.34375 -15.09375,9.0625 9.0625,7.53125 0,9.0625 -1.53125,13.59375 6.0625,15.09375 -6.0625,3.03125 0,21.125 -61.90625,61.90625 -39.25,-3 21.15625,40.75 -9.0625,3.03125 0,6.03125 33.21875,22.65625 -49.84375,-3.03125 10.59375,43.78125 27.15625,9.0625 1.53125,16.625 -55.875,-6.0625 16.59375,46.8125 31.71875,9.0625 -1.5,21.125 -55.875,-3 21.125,43.78125 27.1875,15.09375 -1.5,31.71875 -57.375,-7.5625 19.625,40.78125 42.28125,16.59375 0,9.0625 -19.625,-1.5 7.53125,31.6875 -64.906248,1.5 21.124998,31.71875 43.78125,15.09375 1.53125,24.15625 -13.59375,-1.5 4.53125,36.25 -144.968748,42.25 70.96875,34.75 -3,48.31253 13.625,0 5.46875,-47.81253 8.531248,-0.15625 -4,45.43748 75.5,4.5313 7.125,-51.25003 3.4375,-0.0625 -1.28125,49.31253 12.15625,0 4.21875,-49.31253 7.3125,-0.0937 -1.98053,49.47383 27.1875,0 -3.17572,-49.75508 69.0625,-0.875 2.05072,51.06868 19.09119,-0.2669 -4.92316,-50.98928 6.1875,-0.0937 8.6875,50.84378 12.21875,0 -1.28125,-49.31253 11.875,0.71875 -1.3125,47.59378 84.53125,1.5 2.21875,-44.00003 3.84375,0.21875 -1.125,43.28128 12.1875,0 -3,-48.31253 70.9375,-34.75 -144.9375,-42.25 4.53125,-36.25 -13.59375,1.5 1.53125,-24.15625 43.78125,-15.09375 21.125,-31.71875 -64.90625,-1.5 7.53125,-31.6875 -19.625,1.5 0,-9.0625 42.28125,-16.59375 19.625,-40.78125 -57.375,7.5625 -1.5,-31.71875 27.15625,-15.09375 21.15625,-43.78125 -55.875,3 -1.5,-21.125 31.71875,-9.0625 16.59375,-46.8125 -55.875,6.0625 1.53125,-16.625 27.15625,-9.0625 10.59375,-43.78125 -49.84375,3.03125 33.21875,-22.65625 0,-6.03125 -9.0625,-3.03125 21.15625,-40.75 -39.28125,3 -61.90625,-61.90625 0,-21.125 -6.03125,-3.03125 6.03125,-15.09385 -1.5,-13.59375 0,-9.0625 9.0625,-7.53125 -15.09375,-9.0625 -1.5,-51.34375 -3.03125,-1.5 z"
           style="fill:#000000;stroke:#000000;stroke-width:1px;stroke-linecap:butt;stroke-linejoin:miter;stroke-opacity:1" />
        <path
           inkscape:original-d="M 150.98453,424.26654 265.73277,235.53587 378.97117,425.77638"
           inkscape:path-effect="#path-effect2849"
           id="path2903"
           d="M 150.98453,424.26654 265.73277,235.53587 378.97117,425.77638"
           style="fill:none;stroke:#b3b3b3;stroke-width:1px;stroke-linecap:butt;stroke-linejoin:miter;stroke-opacity:1" />
      </g>
      <g
         id="g2905"
         transform="matrix(0.33302139,0,0,0.33302139,987.35309,637.09816)">
        <path
           style="fill:#000000;stroke:#000000;stroke-width:1px;stroke-linecap:butt;stroke-linejoin:miter;stroke-opacity:1"
           d="m 265.73505,232.52132 -3.03125,1.5 -1.5,51.34375 -15.09375,9.0625 9.0625,7.53125 0,9.0625 -1.53125,13.59375 6.0625,15.09375 -6.0625,3.03125 0,21.125 -61.90625,61.90625 -39.25,-3 21.15625,40.75 -9.0625,3.03125 0,6.03125 33.21875,22.65625 -49.84375,-3.03125 10.59375,43.78125 27.15625,9.0625 1.53125,16.625 -55.875,-6.0625 16.59375,46.8125 31.71875,9.0625 -1.5,21.125 -55.875,-3 21.125,43.78125 27.1875,15.09375 -1.5,31.71875 -57.375,-7.5625 19.625,40.78125 42.28125,16.59375 0,9.0625 -19.625,-1.5 7.53125,31.6875 -64.906248,1.5 21.124998,31.71875 43.78125,15.09375 1.53125,24.15625 -13.59375,-1.5 4.53125,36.25 -144.968748,42.25 70.96875,34.75 -3,48.31253 13.625,0 5.46875,-47.81253 8.531248,-0.15625 -4,45.43748 75.5,4.5313 7.125,-51.25003 3.4375,-0.0625 -1.28125,49.31253 12.15625,0 4.21875,-49.31253 7.3125,-0.0937 -1.98053,49.47383 27.1875,0 -3.17572,-49.75508 69.0625,-0.875 2.05072,51.06868 19.09119,-0.2669 -4.92316,-50.98928 6.1875,-0.0937 8.6875,50.84378 12.21875,0 -1.28125,-49.31253 11.875,0.71875 -1.3125,47.59378 84.53125,1.5 2.21875,-44.00003 3.84375,0.21875 -1.125,43.28128 12.1875,0 -3,-48.31253 70.9375,-34.75 -144.9375,-42.25 4.53125,-36.25 -13.59375,1.5 1.53125,-24.15625 43.78125,-15.09375 21.125,-31.71875 -64.90625,-1.5 7.53125,-31.6875 -19.625,1.5 0,-9.0625 42.28125,-16.59375 19.625,-40.78125 -57.375,7.5625 -1.5,-31.71875 27.15625,-15.09375 21.15625,-43.78125 -55.875,3 -1.5,-21.125 31.71875,-9.0625 16.59375,-46.8125 -55.875,6.0625 1.53125,-16.625 27.15625,-9.0625 10.59375,-43.78125 -49.84375,3.03125 33.21875,-22.65625 0,-6.03125 -9.0625,-3.03125 21.15625,-40.75 -39.28125,3 -61.90625,-61.90625 0,-21.125 -6.03125,-3.03125 6.03125,-15.09385 -1.5,-13.59375 0,-9.0625 9.0625,-7.53125 -15.09375,-9.0625 -1.5,-51.34375 -3.03125,-1.5 z"
           id="path2907"
           sodipodi:nodetypes="cccccccccccccccccccccccccccccccccccccccccccccccccccccccccccccccccccccccccccccccccccccccccccccccccccccccccccccccccc" />
        <path
           style="fill:none;stroke:#b3b3b3;stroke-width:1px;stroke-linecap:butt;stroke-linejoin:miter;stroke-opacity:1"
           d="M 150.98453,424.26654 265.73277,235.53587 378.97117,425.77638"
           id="path2909"
           inkscape:path-effect="#path-effect2849"
           inkscape:original-d="M 150.98453,424.26654 265.73277,235.53587 378.97117,425.77638" />
      </g>
      <g
         transform="matrix(0.92996954,0,0,0.92996954,1137.9312,13.703649)"
         id="g2911">
        <path
           sodipodi:nodetypes="cccccccccccccccccccccccccccccccccccccccccccccccccccccccccccccccccccccccccccccccccccccccccccccccccccccccccccccccccc"
           id="path2913"
           d="m 265.73505,232.52132 -3.03125,1.5 -1.5,51.34375 -15.09375,9.0625 9.0625,7.53125 0,9.0625 -1.53125,13.59375 6.0625,15.09375 -6.0625,3.03125 0,21.125 -61.90625,61.90625 -39.25,-3 21.15625,40.75 -9.0625,3.03125 0,6.03125 33.21875,22.65625 -49.84375,-3.03125 10.59375,43.78125 27.15625,9.0625 1.53125,16.625 -55.875,-6.0625 16.59375,46.8125 31.71875,9.0625 -1.5,21.125 -55.875,-3 21.125,43.78125 27.1875,15.09375 -1.5,31.71875 -57.375,-7.5625 19.625,40.78125 42.28125,16.59375 0,9.0625 -19.625,-1.5 7.53125,31.6875 -64.906248,1.5 21.124998,31.71875 43.78125,15.09375 1.53125,24.15625 -13.59375,-1.5 4.53125,36.25 -144.968748,42.25 70.96875,34.75 -3,48.31253 13.625,0 5.46875,-47.81253 8.531248,-0.15625 -4,45.43748 75.5,4.5313 7.125,-51.25003 3.4375,-0.0625 -1.28125,49.31253 12.15625,0 4.21875,-49.31253 7.3125,-0.0937 -1.98053,49.47383 27.1875,0 -3.17572,-49.75508 69.0625,-0.875 2.05072,51.06868 19.09119,-0.2669 -4.92316,-50.98928 6.1875,-0.0937 8.6875,50.84378 12.21875,0 -1.28125,-49.31253 11.875,0.71875 -1.3125,47.59378 84.53125,1.5 2.21875,-44.00003 3.84375,0.21875 -1.125,43.28128 12.1875,0 -3,-48.31253 70.9375,-34.75 -144.9375,-42.25 4.53125,-36.25 -13.59375,1.5 1.53125,-24.15625 43.78125,-15.09375 21.125,-31.71875 -64.90625,-1.5 7.53125,-31.6875 -19.625,1.5 0,-9.0625 42.28125,-16.59375 19.625,-40.78125 -57.375,7.5625 -1.5,-31.71875 27.15625,-15.09375 21.15625,-43.78125 -55.875,3 -1.5,-21.125 31.71875,-9.0625 16.59375,-46.8125 -55.875,6.0625 1.53125,-16.625 27.15625,-9.0625 10.59375,-43.78125 -49.84375,3.03125 33.21875,-22.65625 0,-6.03125 -9.0625,-3.03125 21.15625,-40.75 -39.28125,3 -61.90625,-61.90625 0,-21.125 -6.03125,-3.03125 6.03125,-15.09385 -1.5,-13.59375 0,-9.0625 9.0625,-7.53125 -15.09375,-9.0625 -1.5,-51.34375 -3.03125,-1.5 z"
           style="fill:#000000;stroke:#000000;stroke-width:1px;stroke-linecap:butt;stroke-linejoin:miter;stroke-opacity:1" />
        <path
           sodipodi:nodetypes="ccc"
           inkscape:original-d="M 150.98453,424.26654 265.73277,232.40722 378.97117,422.64773"
           inkscape:path-effect="#path-effect2849"
           id="path2915"
           d="M 150.98453,424.26654 265.73277,232.40722 378.97117,422.64773"
           style="fill:none;stroke:#b3b3b3;stroke-width:1px;stroke-linecap:butt;stroke-linejoin:miter;stroke-opacity:1" />
      </g>
      <path
         transform="matrix(0.08634977,0,0,0.08634977,176.44856,198.3642)"
         d="m 942.27635,328.4078 -88.65947,-64.51463 -28.14215,105.97481 -33.80628,-104.30617 -85.0579,69.19388 33.95977,-104.25629 -109.48443,5.98324 88.75434,-64.38406 -92.09163,-59.51279 109.64778,0.0807 -39.52295,-102.276959 88.65947,64.514634 28.14215,-105.97481 33.80628,104.306169 85.0579,-69.1938815 -33.95977,104.2562875 109.48444,-5.98324 -88.75435,64.38406 92.09165,59.51279 -109.6478,-0.0807 39.52295,102.27696 z"
         inkscape:randomized="0"
         inkscape:rounded="0"
         inkscape:flatsided="false"
         sodipodi:arg2="1.2297076"
         sodipodi:arg1="0.91554833"
         sodipodi:r2="100.27101"
         sodipodi:r1="200.54202"
         sodipodi:cy="169.39867"
         sodipodi:cx="820.07489"
         sodipodi:sides="10"
         id="path2959"
         style="fill:#000000;fill-opacity:1;stroke:none"
         sodipodi:type="star" />
      <path
         sodipodi:type="star"
         style="fill:#000000;fill-opacity:1;stroke:none"
         id="path2985"
         sodipodi:sides="10"
         sodipodi:cx="820.07489"
         sodipodi:cy="169.39867"
         sodipodi:r1="200.54202"
         sodipodi:r2="100.27101"
         sodipodi:arg1="0.91554833"
         sodipodi:arg2="1.2297076"
         inkscape:flatsided="false"
         inkscape:rounded="0"
         inkscape:randomized="0"
         d="m 942.27635,328.4078 -88.65947,-64.51463 -28.14215,105.97481 -33.80628,-104.30617 -85.0579,69.19388 33.95977,-104.25629 -109.48443,5.98324 88.75434,-64.38406 -92.09163,-59.51279 109.64778,0.0807 -39.52295,-102.276959 88.65947,64.514634 28.14215,-105.97481 33.80628,104.306169 85.0579,-69.1938815 -33.95977,104.2562875 109.48444,-5.98324 -88.75435,64.38406 92.09165,59.51279 -109.6478,-0.0807 39.52295,102.27696 z"
         transform="matrix(0.08634977,0,0,0.08634977,1313.9118,198.3642)" />
    </g>
  </g>
</svg>
